<mxfile host="app.diagrams.net" agent="Mozilla/5.0 (Windows NT 10.0; Win64; x64) AppleWebKit/537.36 (KHTML, like Gecko) Chrome/138.0.0.0 Whale/4.33.325.17 Safari/537.36" version="28.1.1" pages="3">
  <diagram name="UC-02" id="8YTJVPFshJAHq5woD0wn">
    <mxGraphModel dx="2145" dy="1119" grid="1" gridSize="10" guides="1" tooltips="1" connect="1" arrows="1" fold="1" page="1" pageScale="1" pageWidth="827" pageHeight="1169" math="0" shadow="0">
      <root>
        <mxCell id="0" />
        <mxCell id="1" parent="0" />
        <mxCell id="vxFuanLwJdvkJMf5H4uR-48" style="edgeStyle=orthogonalEdgeStyle;rounded=0;orthogonalLoop=1;jettySize=auto;html=1;exitX=0;exitY=0.5;exitDx=0;exitDy=0;strokeWidth=2;endArrow=none;endFill=0;fontSize=14;" edge="1" parent="1" source="vxFuanLwJdvkJMf5H4uR-19" target="vxFuanLwJdvkJMf5H4uR-26">
          <mxGeometry relative="1" as="geometry" />
        </mxCell>
        <mxCell id="vxFuanLwJdvkJMf5H4uR-26" value="«application logic»&lt;br&gt;&lt;div&gt;:OptimizationEngine&lt;/div&gt;" style="html=1;whiteSpace=wrap;fontSize=14;" vertex="1" parent="1">
          <mxGeometry x="271" y="570" width="130" height="50" as="geometry" />
        </mxCell>
        <mxCell id="vxFuanLwJdvkJMf5H4uR-72" value="1.9: displayResults()" style="text;html=1;align=center;verticalAlign=middle;resizable=0;points=[];autosize=1;strokeColor=none;fillColor=none;fontSize=14;" vertex="1" parent="1">
          <mxGeometry x="506" y="358" width="150" height="30" as="geometry" />
        </mxCell>
        <mxCell id="vxFuanLwJdvkJMf5H4uR-81" value="PowerUsageData : 사용자 전력 사용량 데이터&lt;div&gt;UserProfile :&amp;nbsp; 사용자 프로필 정보&lt;/div&gt;&lt;div&gt;&lt;br&gt;&lt;/div&gt;&lt;div&gt;pricingPlan : 전력공급사가 제공하는 전력 요금제 정보&lt;/div&gt;&lt;div&gt;predictedFare : AI 모델이 예측한 전력 요금 정보&lt;/div&gt;&lt;div&gt;optimizationSuggestion : 최적화 엔진(OptimizationEngine)이 로직에 따라 만든 최적화 제안(스케줄 등)&lt;/div&gt;&lt;div&gt;controlSchedule : 기기 제어 스케줄(기기, 명령, 시간)&lt;/div&gt;&lt;div&gt;controlScheduleList : controlSchedule 리스트(배열)&lt;/div&gt;&lt;div&gt;&lt;br&gt;&lt;/div&gt;" style="shape=note2;boundedLbl=1;whiteSpace=wrap;html=1;size=25;verticalAlign=top;align=left;fontSize=14;" vertex="1" parent="1">
          <mxGeometry x="211" y="110" width="420" height="200" as="geometry" />
        </mxCell>
        <mxCell id="vxFuanLwJdvkJMf5H4uR-98" value="UC-02 AI 기반 요금 예측 및 최적화 제안" style="shape=umlFrame;whiteSpace=wrap;html=1;pointerEvents=0;recursiveResize=0;container=1;collapsible=0;width=240;height=30;fontSize=14;" vertex="1" parent="1">
          <mxGeometry x="271" y="330" width="1039" height="620" as="geometry" />
        </mxCell>
        <mxCell id="vxFuanLwJdvkJMf5H4uR-20" value="«control»&lt;br&gt;&lt;div&gt;:DataManager&lt;/div&gt;" style="html=1;whiteSpace=wrap;fontSize=14;" vertex="1" parent="vxFuanLwJdvkJMf5H4uR-98">
          <mxGeometry x="620" y="390" width="110" height="50" as="geometry" />
        </mxCell>
        <mxCell id="vxFuanLwJdvkJMf5H4uR-76" value="«entity»&lt;br&gt;&lt;div&gt;:UserProfile&lt;/div&gt;" style="html=1;whiteSpace=wrap;fontSize=14;" vertex="1" parent="vxFuanLwJdvkJMf5H4uR-98">
          <mxGeometry x="770" y="480" width="110" height="50" as="geometry" />
        </mxCell>
        <mxCell id="vxFuanLwJdvkJMf5H4uR-80" style="rounded=0;orthogonalLoop=1;jettySize=auto;html=1;exitX=1;exitY=0.5;exitDx=0;exitDy=0;entryX=0;entryY=0.5;entryDx=0;entryDy=0;strokeWidth=2;endArrow=none;endFill=0;fontSize=14;" edge="1" parent="vxFuanLwJdvkJMf5H4uR-98" source="vxFuanLwJdvkJMf5H4uR-20" target="vxFuanLwJdvkJMf5H4uR-76">
          <mxGeometry relative="1" as="geometry" />
        </mxCell>
        <mxCell id="vxFuanLwJdvkJMf5H4uR-75" value="&lt;div&gt;&amp;lt;&amp;lt;entity&amp;gt;&amp;gt;&lt;/div&gt;&lt;div&gt;:PowerUsageData&lt;/div&gt;" style="html=1;whiteSpace=wrap;fontSize=14;" vertex="1" parent="vxFuanLwJdvkJMf5H4uR-98">
          <mxGeometry x="770" y="390" width="110" height="50" as="geometry" />
        </mxCell>
        <mxCell id="vxFuanLwJdvkJMf5H4uR-79" style="rounded=0;orthogonalLoop=1;jettySize=auto;html=1;exitX=1;exitY=0.5;exitDx=0;exitDy=0;entryX=0;entryY=0.5;entryDx=0;entryDy=0;strokeWidth=2;endArrow=none;endFill=0;fontSize=14;" edge="1" parent="vxFuanLwJdvkJMf5H4uR-98" source="vxFuanLwJdvkJMf5H4uR-20" target="vxFuanLwJdvkJMf5H4uR-75">
          <mxGeometry relative="1" as="geometry" />
        </mxCell>
        <mxCell id="vxFuanLwJdvkJMf5H4uR-77" value="1.3: userProfile:= getUserProfile(userID)" style="text;html=1;align=left;verticalAlign=middle;resizable=0;points=[];autosize=1;strokeColor=none;fillColor=none;fontSize=14;" vertex="1" parent="vxFuanLwJdvkJMf5H4uR-98">
          <mxGeometry x="569" y="325" width="270" height="30" as="geometry" />
        </mxCell>
        <mxCell id="vxFuanLwJdvkJMf5H4uR-58" value="1.2: p&lt;span style=&quot;text-align: center; text-wrap-mode: wrap;&quot;&gt;owerUsageData&amp;nbsp;&lt;/span&gt;:= getUsageHistory(userID)" style="text;html=1;align=left;verticalAlign=middle;resizable=0;points=[];autosize=1;strokeColor=none;fillColor=none;fontSize=14;" vertex="1" parent="vxFuanLwJdvkJMf5H4uR-98">
          <mxGeometry x="537" y="295" width="330" height="30" as="geometry" />
        </mxCell>
        <mxCell id="vxFuanLwJdvkJMf5H4uR-53" value="" style="endArrow=open;endFill=1;endSize=12;html=1;rounded=0;entryX=0.5;entryY=-0.1;entryDx=0;entryDy=0;entryPerimeter=0;fontSize=14;" edge="1" parent="vxFuanLwJdvkJMf5H4uR-98">
          <mxGeometry width="160" relative="1" as="geometry">
            <mxPoint x="510.5" y="280" as="sourcePoint" />
            <mxPoint x="608" y="385" as="targetPoint" />
          </mxGeometry>
        </mxCell>
        <mxCell id="vxFuanLwJdvkJMf5H4uR-82" value="«control»&lt;br&gt;&lt;div&gt;:ScheduleManager&lt;/div&gt;" style="html=1;whiteSpace=wrap;fontSize=14;" vertex="1" parent="vxFuanLwJdvkJMf5H4uR-98">
          <mxGeometry x="677" y="219" width="132" height="50" as="geometry" />
        </mxCell>
        <mxCell id="vxFuanLwJdvkJMf5H4uR-91" style="rounded=0;orthogonalLoop=1;jettySize=auto;html=1;exitX=1;exitY=0.5;exitDx=0;exitDy=0;entryX=0;entryY=0.5;entryDx=0;entryDy=0;strokeWidth=2;endArrow=none;endFill=0;fontSize=14;" edge="1" parent="vxFuanLwJdvkJMf5H4uR-98" source="vxFuanLwJdvkJMf5H4uR-82" target="vxFuanLwJdvkJMf5H4uR-93">
          <mxGeometry relative="1" as="geometry">
            <mxPoint x="910" y="260" as="sourcePoint" />
            <mxPoint x="860" y="185" as="targetPoint" />
          </mxGeometry>
        </mxCell>
        <mxCell id="vxFuanLwJdvkJMf5H4uR-93" value="&lt;div&gt;&amp;lt;&amp;lt;entity&amp;gt;&amp;gt;&lt;/div&gt;&lt;div&gt;:controlSchedule&lt;/div&gt;" style="html=1;whiteSpace=wrap;fontSize=14;" vertex="1" parent="vxFuanLwJdvkJMf5H4uR-98">
          <mxGeometry x="880" y="218" width="110" height="51" as="geometry" />
        </mxCell>
        <mxCell id="vxFuanLwJdvkJMf5H4uR-61" value="1.6: predictedFare :=&#xa;calculateFare(powerUsageData, pricingPlan)" style="text;whiteSpace=wrap;fontSize=14;" vertex="1" parent="vxFuanLwJdvkJMf5H4uR-98">
          <mxGeometry x="43" y="355" width="340" height="40" as="geometry" />
        </mxCell>
        <mxCell id="vxFuanLwJdvkJMf5H4uR-69" value="1.7: optimizationSuggestion :=&#xa;suggestOptimization(powerUsageData, userProfile)" style="text;whiteSpace=wrap;fontSize=14;" vertex="1" parent="vxFuanLwJdvkJMf5H4uR-98">
          <mxGeometry x="73" y="200" width="340" height="40" as="geometry" />
        </mxCell>
        <mxCell id="vxFuanLwJdvkJMf5H4uR-70" value="1.8: forwardResults(predictedFare, optimizationSuggestion)" style="text;html=1;align=center;verticalAlign=middle;resizable=0;points=[];autosize=1;strokeColor=none;fillColor=none;fontSize=14;" vertex="1" parent="vxFuanLwJdvkJMf5H4uR-98">
          <mxGeometry x="10" y="150" width="390" height="30" as="geometry" />
        </mxCell>
        <mxCell id="vxFuanLwJdvkJMf5H4uR-104" value="2 [user accept suggestion]: requestAcceptSuggestion()" style="text;html=1;align=left;verticalAlign=middle;resizable=0;points=[];autosize=1;strokeColor=none;fillColor=none;fontSize=14;fontColor=#FF1C10;" vertex="1" parent="vxFuanLwJdvkJMf5H4uR-98">
          <mxGeometry x="422" y="33" width="360" height="30" as="geometry" />
        </mxCell>
        <mxCell id="vxFuanLwJdvkJMf5H4uR-106" value="2.2: saveSchedule(userID, scheduleList)" style="text;html=1;align=left;verticalAlign=middle;resizable=0;points=[];autosize=1;strokeColor=none;fillColor=none;fontSize=14;textShadow=0;labelBackgroundColor=none;fontColor=#FF1C10;" vertex="1" parent="vxFuanLwJdvkJMf5H4uR-98">
          <mxGeometry x="439" y="205" width="270" height="30" as="geometry" />
        </mxCell>
        <mxCell id="vxFuanLwJdvkJMf5H4uR-16" value="사용자" style="shape=umlActor;verticalLabelPosition=bottom;verticalAlign=top;html=1;fontSize=14;" vertex="1" parent="vxFuanLwJdvkJMf5H4uR-98">
          <mxGeometry x="383" y="-100" width="30" height="60" as="geometry" />
        </mxCell>
        <mxCell id="vxFuanLwJdvkJMf5H4uR-33" style="edgeStyle=orthogonalEdgeStyle;rounded=0;orthogonalLoop=1;jettySize=auto;html=1;exitX=0.5;exitY=0;exitDx=0;exitDy=0;endArrow=none;endFill=0;strokeWidth=2;entryX=0.5;entryY=1;entryDx=0;entryDy=0;fontSize=14;" edge="1" parent="vxFuanLwJdvkJMf5H4uR-98" source="vxFuanLwJdvkJMf5H4uR-19" target="vxFuanLwJdvkJMf5H4uR-44">
          <mxGeometry relative="1" as="geometry">
            <mxPoint x="398" y="81" as="targetPoint" />
          </mxGeometry>
        </mxCell>
        <mxCell id="vxFuanLwJdvkJMf5H4uR-35" style="rounded=0;orthogonalLoop=1;jettySize=auto;html=1;exitX=1;exitY=0.5;exitDx=0;exitDy=0;entryX=0;entryY=0.5;entryDx=0;entryDy=0;strokeWidth=2;endArrow=none;endFill=0;fontSize=14;" edge="1" parent="vxFuanLwJdvkJMf5H4uR-98" source="vxFuanLwJdvkJMf5H4uR-19" target="vxFuanLwJdvkJMf5H4uR-20">
          <mxGeometry relative="1" as="geometry">
            <mxPoint x="563" y="415" as="targetPoint" />
          </mxGeometry>
        </mxCell>
        <mxCell id="vxFuanLwJdvkJMf5H4uR-37" style="edgeStyle=orthogonalEdgeStyle;rounded=0;orthogonalLoop=1;jettySize=auto;html=1;exitX=0.5;exitY=1;exitDx=0;exitDy=0;entryX=0.5;entryY=0;entryDx=0;entryDy=0;strokeWidth=2;endArrow=none;endFill=0;fontSize=14;" edge="1" parent="vxFuanLwJdvkJMf5H4uR-98" source="vxFuanLwJdvkJMf5H4uR-19" target="vxFuanLwJdvkJMf5H4uR-21">
          <mxGeometry relative="1" as="geometry" />
        </mxCell>
        <mxCell id="vxFuanLwJdvkJMf5H4uR-19" value="«control»&lt;br&gt;&lt;div&gt;:PredictionController&lt;/div&gt;" style="html=1;whiteSpace=wrap;fontSize=14;" vertex="1" parent="vxFuanLwJdvkJMf5H4uR-98">
          <mxGeometry x="323" y="250" width="150" height="30" as="geometry" />
        </mxCell>
        <mxCell id="vxFuanLwJdvkJMf5H4uR-38" style="edgeStyle=orthogonalEdgeStyle;rounded=0;orthogonalLoop=1;jettySize=auto;html=1;exitX=0.5;exitY=1;exitDx=0;exitDy=0;strokeWidth=2;endArrow=none;endFill=0;fontSize=14;" edge="1" parent="vxFuanLwJdvkJMf5H4uR-98" source="vxFuanLwJdvkJMf5H4uR-21">
          <mxGeometry relative="1" as="geometry">
            <mxPoint x="398" y="650" as="targetPoint" />
          </mxGeometry>
        </mxCell>
        <mxCell id="vxFuanLwJdvkJMf5H4uR-21" value="«boundary»&lt;br&gt;&lt;div&gt;:PowerCompanyInterface&lt;/div&gt;" style="html=1;whiteSpace=wrap;fontSize=14;" vertex="1" parent="vxFuanLwJdvkJMf5H4uR-98">
          <mxGeometry x="313" y="480" width="170" height="50" as="geometry" />
        </mxCell>
        <mxCell id="vxFuanLwJdvkJMf5H4uR-22" value="전력공급사" style="shape=umlActor;verticalLabelPosition=bottom;verticalAlign=top;html=1;fontSize=14;" vertex="1" parent="vxFuanLwJdvkJMf5H4uR-98">
          <mxGeometry x="383" y="660" width="30" height="60" as="geometry" />
        </mxCell>
        <mxCell id="vxFuanLwJdvkJMf5H4uR-41" value="" style="endArrow=open;endFill=1;endSize=12;html=1;rounded=0;exitX=0.885;exitY=0;exitDx=0;exitDy=0;exitPerimeter=0;fontSize=14;" edge="1" parent="vxFuanLwJdvkJMf5H4uR-98">
          <mxGeometry width="160" relative="1" as="geometry">
            <mxPoint x="383.9000000000001" y="220" as="sourcePoint" />
            <mxPoint x="383" y="138" as="targetPoint" />
          </mxGeometry>
        </mxCell>
        <mxCell id="vxFuanLwJdvkJMf5H4uR-83" style="rounded=0;orthogonalLoop=1;jettySize=auto;html=1;exitX=1;exitY=0;exitDx=0;exitDy=0;entryX=0;entryY=0.5;entryDx=0;entryDy=0;strokeWidth=2;endArrow=none;endFill=0;fontSize=14;" edge="1" parent="vxFuanLwJdvkJMf5H4uR-98" source="vxFuanLwJdvkJMf5H4uR-19" target="vxFuanLwJdvkJMf5H4uR-82">
          <mxGeometry relative="1" as="geometry">
            <mxPoint x="620" y="205" as="targetPoint" />
          </mxGeometry>
        </mxCell>
        <mxCell id="vxFuanLwJdvkJMf5H4uR-44" value="«boundary»&lt;br&gt;&lt;div&gt;:UserInterface&lt;/div&gt;" style="html=1;whiteSpace=wrap;fontSize=14;" vertex="1" parent="vxFuanLwJdvkJMf5H4uR-98">
          <mxGeometry x="343" y="71" width="110" height="50" as="geometry" />
        </mxCell>
        <mxCell id="vxFuanLwJdvkJMf5H4uR-45" style="edgeStyle=orthogonalEdgeStyle;rounded=0;orthogonalLoop=1;jettySize=auto;html=1;exitX=0.5;exitY=0;exitDx=0;exitDy=0;endArrow=none;endFill=0;strokeWidth=2;fontSize=14;" edge="1" parent="vxFuanLwJdvkJMf5H4uR-98" source="vxFuanLwJdvkJMf5H4uR-44">
          <mxGeometry relative="1" as="geometry">
            <mxPoint x="398" y="-20" as="targetPoint" />
            <mxPoint x="413" y="201" as="sourcePoint" />
          </mxGeometry>
        </mxCell>
        <mxCell id="vxFuanLwJdvkJMf5H4uR-50" value="1.1: processPrediction(userID)" style="text;html=1;align=center;verticalAlign=middle;resizable=0;points=[];autosize=1;strokeColor=none;fillColor=none;fontSize=14;" vertex="1" parent="vxFuanLwJdvkJMf5H4uR-98">
          <mxGeometry x="398" y="150" width="210" height="30" as="geometry" />
        </mxCell>
        <mxCell id="vxFuanLwJdvkJMf5H4uR-51" value="" style="endArrow=open;endFill=1;endSize=12;html=1;rounded=0;fontSize=14;" edge="1" parent="vxFuanLwJdvkJMf5H4uR-98">
          <mxGeometry width="160" relative="1" as="geometry">
            <mxPoint x="412" y="20" as="sourcePoint" />
            <mxPoint x="412" y="59" as="targetPoint" />
          </mxGeometry>
        </mxCell>
        <mxCell id="vxFuanLwJdvkJMf5H4uR-52" value="" style="endArrow=open;endFill=1;endSize=12;html=1;rounded=0;fontSize=14;" edge="1" parent="vxFuanLwJdvkJMf5H4uR-98">
          <mxGeometry width="160" relative="1" as="geometry">
            <mxPoint x="408" y="140" as="sourcePoint" />
            <mxPoint x="408" y="220" as="targetPoint" />
          </mxGeometry>
        </mxCell>
        <mxCell id="vxFuanLwJdvkJMf5H4uR-56" value="" style="endArrow=open;endFill=1;endSize=12;html=1;rounded=0;fontSize=14;" edge="1" parent="vxFuanLwJdvkJMf5H4uR-98">
          <mxGeometry width="160" relative="1" as="geometry">
            <mxPoint x="408" y="322" as="sourcePoint" />
            <mxPoint x="408" y="392" as="targetPoint" />
          </mxGeometry>
        </mxCell>
        <mxCell id="vxFuanLwJdvkJMf5H4uR-71" value="" style="endArrow=open;endFill=1;endSize=12;html=1;rounded=0;fontSize=14;" edge="1" parent="vxFuanLwJdvkJMf5H4uR-98">
          <mxGeometry width="160" relative="1" as="geometry">
            <mxPoint x="382" y="61" as="sourcePoint" />
            <mxPoint x="381" y="15" as="targetPoint" />
          </mxGeometry>
        </mxCell>
        <mxCell id="vxFuanLwJdvkJMf5H4uR-73" value="" style="endArrow=open;endFill=1;endSize=12;html=1;rounded=0;fontSize=14;" edge="1" parent="vxFuanLwJdvkJMf5H4uR-98">
          <mxGeometry width="160" relative="1" as="geometry">
            <mxPoint x="408" y="550" as="sourcePoint" />
            <mxPoint x="408" y="600" as="targetPoint" />
          </mxGeometry>
        </mxCell>
        <mxCell id="vxFuanLwJdvkJMf5H4uR-49" value="1: requestPrediction()" style="text;html=1;align=center;verticalAlign=middle;resizable=0;points=[];autosize=1;strokeColor=none;fillColor=none;fontSize=14;" vertex="1" parent="vxFuanLwJdvkJMf5H4uR-98">
          <mxGeometry x="408" y="13" width="160" height="30" as="geometry" />
        </mxCell>
        <mxCell id="vxFuanLwJdvkJMf5H4uR-25" value="«application logic»&lt;br&gt;&lt;div&gt;:PredictionModel&lt;/div&gt;" style="html=1;whiteSpace=wrap;fontSize=14;" vertex="1" parent="vxFuanLwJdvkJMf5H4uR-98">
          <mxGeometry x="80" y="480" width="160" height="50" as="geometry" />
        </mxCell>
        <mxCell id="vxFuanLwJdvkJMf5H4uR-47" style="rounded=0;orthogonalLoop=1;jettySize=auto;html=1;exitX=0;exitY=1;exitDx=0;exitDy=0;endArrow=none;endFill=0;strokeWidth=2;fontSize=14;" edge="1" parent="vxFuanLwJdvkJMf5H4uR-98" source="vxFuanLwJdvkJMf5H4uR-19" target="vxFuanLwJdvkJMf5H4uR-25">
          <mxGeometry relative="1" as="geometry" />
        </mxCell>
        <mxCell id="vxFuanLwJdvkJMf5H4uR-68" value="" style="endArrow=open;endFill=1;endSize=12;html=1;rounded=0;fontSize=14;" edge="1" parent="vxFuanLwJdvkJMf5H4uR-98">
          <mxGeometry width="160" relative="1" as="geometry">
            <mxPoint x="303" y="250" as="sourcePoint" />
            <mxPoint x="183" y="250" as="targetPoint" />
          </mxGeometry>
        </mxCell>
        <mxCell id="vxFuanLwJdvkJMf5H4uR-87" value="2.1: acceptSuggestion(userID)" style="text;html=1;align=left;verticalAlign=middle;resizable=0;points=[];autosize=1;strokeColor=none;fillColor=none;fontSize=14;textShadow=0;labelBackgroundColor=none;fontColor=#FF1C10;" vertex="1" parent="vxFuanLwJdvkJMf5H4uR-98">
          <mxGeometry x="407" y="170" width="210" height="30" as="geometry" />
        </mxCell>
        <mxCell id="vxFuanLwJdvkJMf5H4uR-54" value="1.4: pricingPlan :=&lt;div&gt;getLatestPricingPlan()&lt;/div&gt;" style="text;html=1;align=left;verticalAlign=middle;resizable=0;points=[];autosize=1;strokeColor=none;fillColor=none;fontSize=14;" vertex="1" parent="vxFuanLwJdvkJMf5H4uR-98">
          <mxGeometry x="413" y="345" width="160" height="50" as="geometry" />
        </mxCell>
        <mxCell id="vxFuanLwJdvkJMf5H4uR-65" value="" style="endArrow=open;endFill=1;endSize=12;html=1;rounded=0;fontSize=14;" edge="1" parent="vxFuanLwJdvkJMf5H4uR-98">
          <mxGeometry width="160" relative="1" as="geometry">
            <mxPoint x="298" y="270" as="sourcePoint" />
            <mxPoint x="240" y="360" as="targetPoint" />
          </mxGeometry>
        </mxCell>
        <mxCell id="vxFuanLwJdvkJMf5H4uR-108" value="" style="endArrow=open;endFill=1;endSize=12;html=1;rounded=0;fontSize=14;" edge="1" parent="vxFuanLwJdvkJMf5H4uR-98">
          <mxGeometry width="160" relative="1" as="geometry">
            <mxPoint x="519" y="235" as="sourcePoint" />
            <mxPoint x="588" y="235" as="targetPoint" />
          </mxGeometry>
        </mxCell>
        <mxCell id="vxFuanLwJdvkJMf5H4uR-57" value="1.5: pricingPlan := getLatestPricingPlan()" style="text;html=1;align=center;verticalAlign=middle;resizable=0;points=[];autosize=1;strokeColor=none;fillColor=none;fontSize=14;" vertex="1" parent="vxFuanLwJdvkJMf5H4uR-98">
          <mxGeometry x="398" y="560" width="280" height="30" as="geometry" />
        </mxCell>
        <mxCell id="zqLGA-jZEZG6o46eOaR1-1" value="2.2.1: saveSchedule(userID, scheduleList)" style="text;html=1;align=left;verticalAlign=middle;resizable=0;points=[];autosize=1;strokeColor=none;fillColor=none;fontSize=14;textShadow=0;labelBackgroundColor=none;fontColor=#FF1C10;" vertex="1" parent="vxFuanLwJdvkJMf5H4uR-98">
          <mxGeometry x="749" y="189" width="290" height="30" as="geometry" />
        </mxCell>
        <mxCell id="vxFuanLwJdvkJMf5H4uR-96" value="&lt;div&gt;optimizationSuggestion&lt;/div&gt;&lt;div&gt;&amp;nbsp;- controlScheduleList&lt;/div&gt;&lt;div&gt;&amp;nbsp;- suggestion&lt;/div&gt;&lt;div&gt;&lt;br&gt;&lt;/div&gt;" style="shape=note2;boundedLbl=1;whiteSpace=wrap;html=1;size=25;verticalAlign=top;align=left;fontSize=14;" vertex="1" parent="1">
          <mxGeometry x="101" y="465" width="150" height="140" as="geometry" />
        </mxCell>
        <mxCell id="vxFuanLwJdvkJMf5H4uR-97" style="rounded=0;orthogonalLoop=1;jettySize=auto;html=1;exitX=0;exitY=0;exitDx=130;exitDy=67.5;exitPerimeter=0;entryX=0;entryY=0.5;entryDx=0;entryDy=0;dashed=1;fontSize=14;" edge="1" parent="1" source="vxFuanLwJdvkJMf5H4uR-96" target="vxFuanLwJdvkJMf5H4uR-69">
          <mxGeometry relative="1" as="geometry" />
        </mxCell>
      </root>
    </mxGraphModel>
  </diagram>
  <diagram name="UC-03" id="zyr5n1dD5L9NOUkfezyE">
    <mxGraphModel dx="1788" dy="933" grid="1" gridSize="10" guides="1" tooltips="1" connect="1" arrows="1" fold="1" page="1" pageScale="1" pageWidth="827" pageHeight="1169" math="0" shadow="0">
      <root>
        <mxCell id="7bWLqyp8lQPBayYotHuz-0" />
        <mxCell id="7bWLqyp8lQPBayYotHuz-1" parent="7bWLqyp8lQPBayYotHuz-0" />
        <mxCell id="7bWLqyp8lQPBayYotHuz-5" value="PowerUsageData : 사용자 전력 사용량 데이터&lt;div&gt;UserProfile :&amp;nbsp; 사용자 프로필 정보&lt;/div&gt;&lt;div&gt;&lt;br&gt;&lt;/div&gt;&lt;div&gt;pricingPlan : 전력공급사가 제공하는 전력 요금제 정보&lt;/div&gt;&lt;div&gt;predictedFare : AI 모델이 예측한 전력 요금 정보&lt;/div&gt;&lt;div&gt;optimizationSuggestion : 최적화 엔진(OptimizationEngine)이 로직에 따라 만든 최적화 제안(스케줄 등)&lt;/div&gt;&lt;div&gt;controlSchedule : 기기 제어 스케줄(기기, 명령, 시간)&lt;/div&gt;&lt;div&gt;controlScheduleList : controlSchedule 리스트(배열)&lt;/div&gt;&lt;div&gt;&lt;br&gt;&lt;/div&gt;" style="shape=note2;boundedLbl=1;whiteSpace=wrap;html=1;size=25;verticalAlign=top;align=left;fontSize=14;" vertex="1" parent="7bWLqyp8lQPBayYotHuz-1">
          <mxGeometry x="211" y="110" width="420" height="200" as="geometry" />
        </mxCell>
        <mxCell id="7bWLqyp8lQPBayYotHuz-50" value="&lt;div&gt;optimizationSuggestion&lt;/div&gt;&lt;div&gt;&amp;nbsp;- controlScheduleList&lt;/div&gt;&lt;div&gt;&amp;nbsp;- suggestion&lt;/div&gt;&lt;div&gt;&lt;br&gt;&lt;/div&gt;" style="shape=note2;boundedLbl=1;whiteSpace=wrap;html=1;size=25;verticalAlign=top;align=left;fontSize=14;" vertex="1" parent="7bWLqyp8lQPBayYotHuz-1">
          <mxGeometry x="101" y="465" width="150" height="140" as="geometry" />
        </mxCell>
        <mxCell id="mYkoXVR-nIwMHZTtmjBQ-0" value="가전기기" style="shape=umlActor;verticalLabelPosition=bottom;verticalAlign=top;html=1;fontSize=14;" vertex="1" parent="7bWLqyp8lQPBayYotHuz-1">
          <mxGeometry x="1154" y="970" width="30" height="60" as="geometry" />
        </mxCell>
        <mxCell id="7bWLqyp8lQPBayYotHuz-7" value="«control»&lt;br&gt;&lt;div&gt;:DataManager&lt;/div&gt;" style="html=1;whiteSpace=wrap;fontSize=14;" vertex="1" parent="7bWLqyp8lQPBayYotHuz-1">
          <mxGeometry x="483" y="535" width="110" height="50" as="geometry" />
        </mxCell>
        <mxCell id="7bWLqyp8lQPBayYotHuz-8" value="«entity»&lt;br&gt;&lt;div&gt;:UserProfile&lt;/div&gt;" style="html=1;whiteSpace=wrap;fontSize=14;" vertex="1" parent="7bWLqyp8lQPBayYotHuz-1">
          <mxGeometry x="350" y="535" width="110" height="50" as="geometry" />
        </mxCell>
        <mxCell id="7bWLqyp8lQPBayYotHuz-9" style="rounded=0;orthogonalLoop=1;jettySize=auto;html=1;exitX=0;exitY=0.5;exitDx=0;exitDy=0;entryX=1;entryY=0.5;entryDx=0;entryDy=0;strokeWidth=2;endArrow=none;endFill=0;fontSize=14;" edge="1" parent="7bWLqyp8lQPBayYotHuz-1" source="7bWLqyp8lQPBayYotHuz-7" target="7bWLqyp8lQPBayYotHuz-8">
          <mxGeometry relative="1" as="geometry" />
        </mxCell>
        <mxCell id="RHSzU9GTz0DqOomnQ9vQ-6" style="edgeStyle=orthogonalEdgeStyle;rounded=0;orthogonalLoop=1;jettySize=auto;html=1;exitX=0.5;exitY=1;exitDx=0;exitDy=0;entryX=0.5;entryY=0;entryDx=0;entryDy=0;strokeWidth=2;endArrow=none;endFill=0;fontSize=14;" edge="1" parent="7bWLqyp8lQPBayYotHuz-1" source="7bWLqyp8lQPBayYotHuz-15" target="7bWLqyp8lQPBayYotHuz-27">
          <mxGeometry relative="1" as="geometry" />
        </mxCell>
        <mxCell id="7bWLqyp8lQPBayYotHuz-15" value="«control»&lt;br&gt;&lt;div&gt;:ScheduleManager&lt;/div&gt;" style="html=1;whiteSpace=wrap;fontSize=14;" vertex="1" parent="7bWLqyp8lQPBayYotHuz-1">
          <mxGeometry x="765" y="300" width="132" height="50" as="geometry" />
        </mxCell>
        <mxCell id="7bWLqyp8lQPBayYotHuz-18" value="1.3 [authResult is true]: &#xa;newStatus := &#xa;sendRemoteCommand(deviceID, command)" style="text;whiteSpace=wrap;fontSize=14;fontColor=#0000FF;" vertex="1" parent="7bWLqyp8lQPBayYotHuz-1">
          <mxGeometry x="843.5" y="610" width="403" height="65" as="geometry" />
        </mxCell>
        <mxCell id="7bWLqyp8lQPBayYotHuz-23" value="사용자" style="shape=umlActor;verticalLabelPosition=bottom;verticalAlign=top;html=1;fontSize=14;" vertex="1" parent="7bWLqyp8lQPBayYotHuz-1">
          <mxGeometry x="1140" y="280" width="30" height="60" as="geometry" />
        </mxCell>
        <mxCell id="RHSzU9GTz0DqOomnQ9vQ-4" style="rounded=0;orthogonalLoop=1;jettySize=auto;html=1;exitX=0;exitY=1;exitDx=0;exitDy=0;entryX=1;entryY=0.5;entryDx=0;entryDy=0;strokeWidth=2;endArrow=none;endFill=0;fontSize=14;" edge="1" parent="7bWLqyp8lQPBayYotHuz-1" source="7bWLqyp8lQPBayYotHuz-27" target="7bWLqyp8lQPBayYotHuz-7">
          <mxGeometry relative="1" as="geometry">
            <mxPoint x="746" y="560.5" as="sourcePoint" />
          </mxGeometry>
        </mxCell>
        <mxCell id="RHSzU9GTz0DqOomnQ9vQ-20" style="edgeStyle=orthogonalEdgeStyle;rounded=0;orthogonalLoop=1;jettySize=auto;html=1;exitX=0.5;exitY=1;exitDx=0;exitDy=0;entryX=0.5;entryY=0;entryDx=0;entryDy=0;endArrow=none;endFill=0;strokeWidth=2;fontSize=14;" edge="1" parent="7bWLqyp8lQPBayYotHuz-1" source="7bWLqyp8lQPBayYotHuz-27" target="RHSzU9GTz0DqOomnQ9vQ-17">
          <mxGeometry relative="1" as="geometry">
            <Array as="points">
              <mxPoint x="831" y="660" />
              <mxPoint x="830" y="660" />
              <mxPoint x="830" y="700" />
            </Array>
          </mxGeometry>
        </mxCell>
        <mxCell id="7bWLqyp8lQPBayYotHuz-27" value="«control»&lt;br&gt;&lt;div&gt;:DeviceControlController&lt;/div&gt;" style="html=1;whiteSpace=wrap;fontSize=14;" vertex="1" parent="7bWLqyp8lQPBayYotHuz-1">
          <mxGeometry x="756" y="486" width="150" height="50" as="geometry" />
        </mxCell>
        <mxCell id="RHSzU9GTz0DqOomnQ9vQ-24" style="edgeStyle=orthogonalEdgeStyle;rounded=0;orthogonalLoop=1;jettySize=auto;html=1;exitX=0.5;exitY=1;exitDx=0;exitDy=0;endArrow=none;endFill=0;strokeWidth=2;fontSize=14;" edge="1" parent="7bWLqyp8lQPBayYotHuz-1" source="7bWLqyp8lQPBayYotHuz-29">
          <mxGeometry relative="1" as="geometry">
            <mxPoint x="1169" y="960" as="targetPoint" />
          </mxGeometry>
        </mxCell>
        <mxCell id="7bWLqyp8lQPBayYotHuz-29" value="«boundary»&lt;br&gt;&lt;div&gt;:DeviceInterface&lt;/div&gt;" style="html=1;whiteSpace=wrap;fontSize=14;" vertex="1" parent="7bWLqyp8lQPBayYotHuz-1">
          <mxGeometry x="1074" y="820" width="190" height="50" as="geometry" />
        </mxCell>
        <mxCell id="7bWLqyp8lQPBayYotHuz-32" style="rounded=0;orthogonalLoop=1;jettySize=auto;html=1;exitX=1;exitY=0.5;exitDx=0;exitDy=0;entryX=0;entryY=0.5;entryDx=0;entryDy=0;strokeWidth=2;endArrow=none;endFill=0;fontSize=14;" edge="1" parent="7bWLqyp8lQPBayYotHuz-1" source="7bWLqyp8lQPBayYotHuz-27" target="7bWLqyp8lQPBayYotHuz-33">
          <mxGeometry relative="1" as="geometry">
            <mxPoint x="1327" y="641" as="targetPoint" />
          </mxGeometry>
        </mxCell>
        <mxCell id="7bWLqyp8lQPBayYotHuz-33" value="«boundary»&lt;br&gt;&lt;div&gt;:UserInterface&lt;/div&gt;" style="html=1;whiteSpace=wrap;fontSize=14;" vertex="1" parent="7bWLqyp8lQPBayYotHuz-1">
          <mxGeometry x="1100" y="486" width="110" height="50" as="geometry" />
        </mxCell>
        <mxCell id="7bWLqyp8lQPBayYotHuz-34" style="edgeStyle=orthogonalEdgeStyle;rounded=0;orthogonalLoop=1;jettySize=auto;html=1;exitX=0.5;exitY=0;exitDx=0;exitDy=0;endArrow=none;endFill=0;strokeWidth=2;fontSize=14;" edge="1" parent="7bWLqyp8lQPBayYotHuz-1" source="7bWLqyp8lQPBayYotHuz-33">
          <mxGeometry relative="1" as="geometry">
            <mxPoint x="1155" y="370" as="targetPoint" />
            <mxPoint x="1170" y="637" as="sourcePoint" />
          </mxGeometry>
        </mxCell>
        <mxCell id="7bWLqyp8lQPBayYotHuz-36" value="" style="endArrow=open;endFill=1;endSize=12;html=1;rounded=0;fontSize=14;" edge="1" parent="7bWLqyp8lQPBayYotHuz-1">
          <mxGeometry width="160" relative="1" as="geometry">
            <mxPoint x="1169" y="419" as="sourcePoint" />
            <mxPoint x="1169" y="458" as="targetPoint" />
          </mxGeometry>
        </mxCell>
        <mxCell id="7bWLqyp8lQPBayYotHuz-37" value="" style="endArrow=open;endFill=1;endSize=12;html=1;rounded=0;fontSize=14;" edge="1" parent="7bWLqyp8lQPBayYotHuz-1">
          <mxGeometry width="160" relative="1" as="geometry">
            <mxPoint x="680" y="740" as="sourcePoint" />
            <mxPoint x="550" y="740" as="targetPoint" />
          </mxGeometry>
        </mxCell>
        <mxCell id="7bWLqyp8lQPBayYotHuz-39" value="" style="endArrow=open;endFill=1;endSize=12;html=1;rounded=0;fontSize=14;" edge="1" parent="7bWLqyp8lQPBayYotHuz-1">
          <mxGeometry width="160" relative="1" as="geometry">
            <mxPoint x="1142.5" y="465" as="sourcePoint" />
            <mxPoint x="1141.5" y="419" as="targetPoint" />
          </mxGeometry>
        </mxCell>
        <mxCell id="7bWLqyp8lQPBayYotHuz-40" value="" style="endArrow=open;endFill=1;endSize=12;html=1;rounded=0;fontSize=14;" edge="1" parent="7bWLqyp8lQPBayYotHuz-1">
          <mxGeometry width="160" relative="1" as="geometry">
            <mxPoint x="1179" y="880" as="sourcePoint" />
            <mxPoint x="1179" y="930" as="targetPoint" />
          </mxGeometry>
        </mxCell>
        <mxCell id="7bWLqyp8lQPBayYotHuz-48" value="" style="endArrow=open;endFill=1;endSize=12;html=1;rounded=0;fontSize=14;entryX=0.863;entryY=0;entryDx=0;entryDy=0;entryPerimeter=0;" edge="1" parent="7bWLqyp8lQPBayYotHuz-1">
          <mxGeometry width="160" relative="1" as="geometry">
            <mxPoint x="1020" y="501" as="sourcePoint" />
            <mxPoint x="954.45" y="501" as="targetPoint" />
          </mxGeometry>
        </mxCell>
        <mxCell id="RHSzU9GTz0DqOomnQ9vQ-22" style="edgeStyle=orthogonalEdgeStyle;rounded=0;orthogonalLoop=1;jettySize=auto;html=1;exitX=0.5;exitY=1;exitDx=0;exitDy=0;endArrow=none;endFill=0;strokeWidth=2;fontSize=14;" edge="1" parent="7bWLqyp8lQPBayYotHuz-1" source="RHSzU9GTz0DqOomnQ9vQ-8" target="7bWLqyp8lQPBayYotHuz-29">
          <mxGeometry relative="1" as="geometry" />
        </mxCell>
        <mxCell id="RHSzU9GTz0DqOomnQ9vQ-8" value="«application logic»&lt;br&gt;&lt;div&gt;:CommandExecutor&lt;/div&gt;" style="html=1;whiteSpace=wrap;fontSize=14;" vertex="1" parent="7bWLqyp8lQPBayYotHuz-1">
          <mxGeometry x="1089" y="700" width="160" height="50" as="geometry" />
        </mxCell>
        <mxCell id="RHSzU9GTz0DqOomnQ9vQ-10" value="" style="endArrow=open;endFill=1;endSize=12;html=1;rounded=0;fontSize=14;entryX=0.863;entryY=0;entryDx=0;entryDy=0;entryPerimeter=0;" edge="1" parent="7bWLqyp8lQPBayYotHuz-1">
          <mxGeometry width="160" relative="1" as="geometry">
            <mxPoint x="720" y="530" as="sourcePoint" />
            <mxPoint x="630" y="547.5" as="targetPoint" />
          </mxGeometry>
        </mxCell>
        <mxCell id="RHSzU9GTz0DqOomnQ9vQ-11" value="2: processControl(userID, deviceID, command)" style="text;whiteSpace=wrap;fontSize=14;fontColor=#FF1C10;" vertex="1" parent="7bWLqyp8lQPBayYotHuz-1">
          <mxGeometry x="632" y="407" width="340" height="40" as="geometry" />
        </mxCell>
        <mxCell id="RHSzU9GTz0DqOomnQ9vQ-13" value="" style="endArrow=open;endFill=1;endSize=12;html=1;rounded=0;fontSize=14;" edge="1" parent="7bWLqyp8lQPBayYotHuz-1">
          <mxGeometry width="160" relative="1" as="geometry">
            <mxPoint x="850" y="436" as="sourcePoint" />
            <mxPoint x="850" y="472" as="targetPoint" />
          </mxGeometry>
        </mxCell>
        <mxCell id="RHSzU9GTz0DqOomnQ9vQ-14" value="1: requestDeviceControl(deviceID, command)" style="text;html=1;align=center;verticalAlign=middle;resizable=0;points=[];autosize=1;strokeColor=none;fillColor=none;fontSize=14;" vertex="1" parent="7bWLqyp8lQPBayYotHuz-1">
          <mxGeometry x="1161.5" y="417" width="310" height="30" as="geometry" />
        </mxCell>
        <mxCell id="RHSzU9GTz0DqOomnQ9vQ-15" value="1.1: processControl(userID, deviceID, command)" style="text;whiteSpace=wrap;fontSize=14;" vertex="1" parent="7bWLqyp8lQPBayYotHuz-1">
          <mxGeometry x="900" y="457" width="290" height="40" as="geometry" />
        </mxCell>
        <mxCell id="RHSzU9GTz0DqOomnQ9vQ-16" value="1.2: authResult := checkAuthority(userID, deviceID)" style="text;whiteSpace=wrap;fontSize=14;" vertex="1" parent="7bWLqyp8lQPBayYotHuz-1">
          <mxGeometry x="426" y="504.5" width="330" height="40" as="geometry" />
        </mxCell>
        <mxCell id="RHSzU9GTz0DqOomnQ9vQ-25" style="edgeStyle=orthogonalEdgeStyle;rounded=0;orthogonalLoop=1;jettySize=auto;html=1;exitX=1;exitY=0.5;exitDx=0;exitDy=0;entryX=0;entryY=0.5;entryDx=0;entryDy=0;strokeWidth=2;endArrow=none;endFill=0;fontSize=14;" edge="1" parent="7bWLqyp8lQPBayYotHuz-1" source="RHSzU9GTz0DqOomnQ9vQ-17" target="RHSzU9GTz0DqOomnQ9vQ-8">
          <mxGeometry relative="1" as="geometry">
            <mxPoint x="780" y="725" as="targetPoint" />
          </mxGeometry>
        </mxCell>
        <mxCell id="RHSzU9GTz0DqOomnQ9vQ-37" style="edgeStyle=orthogonalEdgeStyle;rounded=0;orthogonalLoop=1;jettySize=auto;html=1;exitX=0.5;exitY=1;exitDx=0;exitDy=0;strokeWidth=2;endArrow=none;endFill=0;fontSize=14;" edge="1" parent="7bWLqyp8lQPBayYotHuz-1" source="RHSzU9GTz0DqOomnQ9vQ-17" target="RHSzU9GTz0DqOomnQ9vQ-18">
          <mxGeometry relative="1" as="geometry" />
        </mxCell>
        <mxCell id="RHSzU9GTz0DqOomnQ9vQ-17" value="«control»&lt;br&gt;&lt;div&gt;:GatewayController&lt;/div&gt;" style="html=1;whiteSpace=wrap;fontSize=14;" vertex="1" parent="7bWLqyp8lQPBayYotHuz-1">
          <mxGeometry x="756" y="700" width="150" height="50" as="geometry" />
        </mxCell>
        <mxCell id="RHSzU9GTz0DqOomnQ9vQ-18" value="«entity»&lt;br&gt;&lt;div&gt;:DeviceStatus&lt;/div&gt;" style="html=1;whiteSpace=wrap;fontSize=14;" vertex="1" parent="7bWLqyp8lQPBayYotHuz-1">
          <mxGeometry x="776" y="830" width="110" height="50" as="geometry" />
        </mxCell>
        <mxCell id="RHSzU9GTz0DqOomnQ9vQ-28" value="1.3A [authResult is false]: notifyAuthFailure()" style="text;whiteSpace=wrap;fontSize=14;fontColor=#0000FF;" vertex="1" parent="7bWLqyp8lQPBayYotHuz-1">
          <mxGeometry x="885" y="530" width="403" height="65" as="geometry" />
        </mxCell>
        <mxCell id="RHSzU9GTz0DqOomnQ9vQ-29" value="" style="endArrow=open;endFill=1;endSize=12;html=1;rounded=0;fontSize=14;" edge="1" parent="7bWLqyp8lQPBayYotHuz-1">
          <mxGeometry width="160" relative="1" as="geometry">
            <mxPoint x="955.55" y="522.78" as="sourcePoint" />
            <mxPoint x="1020" y="523" as="targetPoint" />
          </mxGeometry>
        </mxCell>
        <mxCell id="RHSzU9GTz0DqOomnQ9vQ-30" value="1.3A.1: displayError()" style="text;whiteSpace=wrap;fontSize=14;fontColor=#0000FF;" vertex="1" parent="7bWLqyp8lQPBayYotHuz-1">
          <mxGeometry x="1011.5" y="390" width="150" height="40" as="geometry" />
        </mxCell>
        <mxCell id="RHSzU9GTz0DqOomnQ9vQ-32" value="1.3.1: result := execute(protocolCmd)" style="text;whiteSpace=wrap;fontSize=14;" vertex="1" parent="7bWLqyp8lQPBayYotHuz-1">
          <mxGeometry x="924" y="670" width="230" height="40" as="geometry" />
        </mxCell>
        <mxCell id="RHSzU9GTz0DqOomnQ9vQ-33" value="1.3.1.1:&#xa;result := controlDevice(protocolCmd)" style="text;whiteSpace=wrap;fontSize=14;" vertex="1" parent="7bWLqyp8lQPBayYotHuz-1">
          <mxGeometry x="1184" y="770" width="230" height="40" as="geometry" />
        </mxCell>
        <mxCell id="RHSzU9GTz0DqOomnQ9vQ-36" value="1.3.2: syncStatus(deviceID, newStatus)" style="text;whiteSpace=wrap;fontSize=14;" vertex="1" parent="7bWLqyp8lQPBayYotHuz-1">
          <mxGeometry x="843.5" y="770" width="246.5" height="40" as="geometry" />
        </mxCell>
        <mxCell id="RHSzU9GTz0DqOomnQ9vQ-42" value="1.4: forwardResult(newStatus)" style="text;whiteSpace=wrap;fontSize=14;" vertex="1" parent="7bWLqyp8lQPBayYotHuz-1">
          <mxGeometry x="885" y="544.5" width="205" height="40" as="geometry" />
        </mxCell>
        <mxCell id="RHSzU9GTz0DqOomnQ9vQ-43" value="1.5: updateView()" style="text;whiteSpace=wrap;fontSize=14;" vertex="1" parent="7bWLqyp8lQPBayYotHuz-1">
          <mxGeometry x="1011.5" y="407" width="130" height="40" as="geometry" />
        </mxCell>
        <mxCell id="4shqVnottf9aPd-6UcZf-2" style="edgeStyle=orthogonalEdgeStyle;rounded=0;orthogonalLoop=1;jettySize=auto;html=1;exitX=0.5;exitY=1;exitDx=0;exitDy=0;exitPerimeter=0;entryX=0.5;entryY=0;entryDx=0;entryDy=0;dashed=1;" edge="1" parent="7bWLqyp8lQPBayYotHuz-1" source="RHSzU9GTz0DqOomnQ9vQ-44" target="7bWLqyp8lQPBayYotHuz-15">
          <mxGeometry relative="1" as="geometry" />
        </mxCell>
        <mxCell id="RHSzU9GTz0DqOomnQ9vQ-44" value="&lt;div&gt;유저가 설정한 스케줄(시간, 명령 쌍)의 경우에도 1.1 processControl과 같은 흐름으로 동작한다.&lt;/div&gt;&lt;div&gt;&lt;br&gt;&lt;/div&gt;" style="shape=note2;boundedLbl=1;whiteSpace=wrap;html=1;size=25;verticalAlign=top;align=left;fontSize=14;" vertex="1" parent="7bWLqyp8lQPBayYotHuz-1">
          <mxGeometry x="681" y="200" width="300" height="70" as="geometry" />
        </mxCell>
        <mxCell id="mrPj1c0s3B7xm014h0e7-6" value="" style="endArrow=open;endFill=1;endSize=12;html=1;rounded=0;fontSize=14;" edge="1" parent="7bWLqyp8lQPBayYotHuz-1">
          <mxGeometry width="160" relative="1" as="geometry">
            <mxPoint x="1178" y="760" as="sourcePoint" />
            <mxPoint x="1178" y="810" as="targetPoint" />
          </mxGeometry>
        </mxCell>
        <mxCell id="mrPj1c0s3B7xm014h0e7-9" value="1.3.1.2: &#xa;result := controlDevice(protocolCmd)" style="text;whiteSpace=wrap;fontSize=14;" vertex="1" parent="7bWLqyp8lQPBayYotHuz-1">
          <mxGeometry x="1184" y="880" width="230" height="40" as="geometry" />
        </mxCell>
        <mxCell id="mrPj1c0s3B7xm014h0e7-10" value="" style="endArrow=open;endFill=1;endSize=12;html=1;rounded=0;fontSize=14;" edge="1" parent="7bWLqyp8lQPBayYotHuz-1">
          <mxGeometry width="160" relative="1" as="geometry">
            <mxPoint x="978" y="716" as="sourcePoint" />
            <mxPoint x="1042.45" y="716.22" as="targetPoint" />
          </mxGeometry>
        </mxCell>
        <mxCell id="pwjt3mTdULOVBaKfCYek-44" value="UC-03 원격 기기 제어" style="shape=umlFrame;whiteSpace=wrap;html=1;pointerEvents=0;recursiveResize=0;container=0;collapsible=0;width=240;height=30;fontSize=14;" vertex="1" parent="7bWLqyp8lQPBayYotHuz-1">
          <mxGeometry x="330" y="377" width="1130" height="563" as="geometry" />
        </mxCell>
        <mxCell id="pwjt3mTdULOVBaKfCYek-88" value="1.3.3: syncStatus(result)" style="text;whiteSpace=wrap;fontSize=14;" vertex="1" parent="7bWLqyp8lQPBayYotHuz-1">
          <mxGeometry x="530" y="850" width="240" height="40" as="geometry" />
        </mxCell>
        <mxCell id="pwjt3mTdULOVBaKfCYek-89" value="" style="endArrow=open;endFill=1;endSize=12;html=1;rounded=0;fontSize=14;" edge="1" parent="7bWLqyp8lQPBayYotHuz-1">
          <mxGeometry width="160" relative="1" as="geometry">
            <mxPoint x="841" y="775" as="sourcePoint" />
            <mxPoint x="841" y="811" as="targetPoint" />
          </mxGeometry>
        </mxCell>
        <mxCell id="4shqVnottf9aPd-6UcZf-0" value="" style="endArrow=open;endFill=1;endSize=12;html=1;rounded=0;fontSize=14;entryX=0;entryY=1;entryDx=0;entryDy=0;" edge="1" parent="7bWLqyp8lQPBayYotHuz-1">
          <mxGeometry width="160" relative="1" as="geometry">
            <mxPoint x="840" y="580" as="sourcePoint" />
            <mxPoint x="839.5" y="674.9999999999998" as="targetPoint" />
          </mxGeometry>
        </mxCell>
      </root>
    </mxGraphModel>
  </diagram>
  <diagram name="UC-02의 복사본의 복사본" id="z6-XawOqT0GwNimT8aqx">
    <mxGraphModel dx="1511" dy="1143" grid="1" gridSize="10" guides="1" tooltips="1" connect="1" arrows="1" fold="1" page="1" pageScale="1" pageWidth="827" pageHeight="1169" math="0" shadow="0">
      <root>
        <mxCell id="vRYSADhHTqtjRS7yTj3M-0" />
        <mxCell id="vRYSADhHTqtjRS7yTj3M-1" parent="vRYSADhHTqtjRS7yTj3M-0" />
        <mxCell id="vRYSADhHTqtjRS7yTj3M-2" style="edgeStyle=orthogonalEdgeStyle;rounded=0;orthogonalLoop=1;jettySize=auto;html=1;exitX=0;exitY=0.5;exitDx=0;exitDy=0;strokeWidth=2;endArrow=none;endFill=0;fontSize=14;" edge="1" parent="vRYSADhHTqtjRS7yTj3M-1" source="vRYSADhHTqtjRS7yTj3M-27" target="vRYSADhHTqtjRS7yTj3M-3">
          <mxGeometry relative="1" as="geometry" />
        </mxCell>
        <mxCell id="vRYSADhHTqtjRS7yTj3M-3" value="«application logic»&lt;br&gt;&lt;div&gt;:OptimizationEngine&lt;/div&gt;" style="html=1;whiteSpace=wrap;fontSize=14;" vertex="1" parent="vRYSADhHTqtjRS7yTj3M-1">
          <mxGeometry x="271" y="570" width="130" height="50" as="geometry" />
        </mxCell>
        <mxCell id="vRYSADhHTqtjRS7yTj3M-4" value="1.9: displayResults()" style="text;html=1;align=center;verticalAlign=middle;resizable=0;points=[];autosize=1;strokeColor=none;fillColor=none;fontSize=14;" vertex="1" parent="vRYSADhHTqtjRS7yTj3M-1">
          <mxGeometry x="506" y="358" width="150" height="30" as="geometry" />
        </mxCell>
        <mxCell id="vRYSADhHTqtjRS7yTj3M-5" value="PowerUsageData : 사용자 전력 사용량 데이터&lt;div&gt;UserProfile :&amp;nbsp; 사용자 프로필 정보&lt;/div&gt;&lt;div&gt;&lt;br&gt;&lt;/div&gt;&lt;div&gt;pricingPlan : 전력공급사가 제공하는 전력 요금제 정보&lt;/div&gt;&lt;div&gt;predictedFare : AI 모델이 예측한 전력 요금 정보&lt;/div&gt;&lt;div&gt;optimizationSuggestion : 최적화 엔진(OptimizationEngine)이 로직에 따라 만든 최적화 제안(스케줄 등)&lt;/div&gt;&lt;div&gt;controlSchedule : 기기 제어 스케줄(기기, 명령, 시간)&lt;/div&gt;&lt;div&gt;controlScheduleList : controlSchedule 리스트(배열)&lt;/div&gt;&lt;div&gt;&lt;br&gt;&lt;/div&gt;" style="shape=note2;boundedLbl=1;whiteSpace=wrap;html=1;size=25;verticalAlign=top;align=left;fontSize=14;" vertex="1" parent="vRYSADhHTqtjRS7yTj3M-1">
          <mxGeometry x="211" y="110" width="420" height="200" as="geometry" />
        </mxCell>
        <mxCell id="vRYSADhHTqtjRS7yTj3M-6" value="UC-02 AI 기반 요금 예측 및 최적화 제안" style="shape=umlFrame;whiteSpace=wrap;html=1;pointerEvents=0;recursiveResize=0;container=1;collapsible=0;width=240;height=30;fontSize=14;" vertex="1" parent="vRYSADhHTqtjRS7yTj3M-1">
          <mxGeometry x="271" y="330" width="970" height="620" as="geometry" />
        </mxCell>
        <mxCell id="vRYSADhHTqtjRS7yTj3M-7" value="«control»&lt;br&gt;&lt;div&gt;:DataManager&lt;/div&gt;" style="html=1;whiteSpace=wrap;fontSize=14;" vertex="1" parent="vRYSADhHTqtjRS7yTj3M-6">
          <mxGeometry x="620" y="390" width="110" height="50" as="geometry" />
        </mxCell>
        <mxCell id="vRYSADhHTqtjRS7yTj3M-8" value="«entity»&lt;br&gt;&lt;div&gt;:UserProfile&lt;/div&gt;" style="html=1;whiteSpace=wrap;fontSize=14;" vertex="1" parent="vRYSADhHTqtjRS7yTj3M-6">
          <mxGeometry x="770" y="480" width="110" height="50" as="geometry" />
        </mxCell>
        <mxCell id="vRYSADhHTqtjRS7yTj3M-9" style="rounded=0;orthogonalLoop=1;jettySize=auto;html=1;exitX=1;exitY=0.5;exitDx=0;exitDy=0;entryX=0;entryY=0.5;entryDx=0;entryDy=0;strokeWidth=2;endArrow=none;endFill=0;fontSize=14;" edge="1" parent="vRYSADhHTqtjRS7yTj3M-6" source="vRYSADhHTqtjRS7yTj3M-7" target="vRYSADhHTqtjRS7yTj3M-8">
          <mxGeometry relative="1" as="geometry" />
        </mxCell>
        <mxCell id="vRYSADhHTqtjRS7yTj3M-10" value="&lt;div&gt;&amp;lt;&amp;lt;entity&amp;gt;&amp;gt;&lt;/div&gt;&lt;div&gt;:PowerUsageData&lt;/div&gt;" style="html=1;whiteSpace=wrap;fontSize=14;" vertex="1" parent="vRYSADhHTqtjRS7yTj3M-6">
          <mxGeometry x="770" y="390" width="110" height="50" as="geometry" />
        </mxCell>
        <mxCell id="vRYSADhHTqtjRS7yTj3M-11" style="rounded=0;orthogonalLoop=1;jettySize=auto;html=1;exitX=1;exitY=0.5;exitDx=0;exitDy=0;entryX=0;entryY=0.5;entryDx=0;entryDy=0;strokeWidth=2;endArrow=none;endFill=0;fontSize=14;" edge="1" parent="vRYSADhHTqtjRS7yTj3M-6" source="vRYSADhHTqtjRS7yTj3M-7" target="vRYSADhHTqtjRS7yTj3M-10">
          <mxGeometry relative="1" as="geometry" />
        </mxCell>
        <mxCell id="vRYSADhHTqtjRS7yTj3M-12" value="1.3: userProfile:= getUserProfile(userID)" style="text;html=1;align=left;verticalAlign=middle;resizable=0;points=[];autosize=1;strokeColor=none;fillColor=none;fontSize=14;" vertex="1" parent="vRYSADhHTqtjRS7yTj3M-6">
          <mxGeometry x="569" y="325" width="270" height="30" as="geometry" />
        </mxCell>
        <mxCell id="vRYSADhHTqtjRS7yTj3M-13" value="1.2: p&lt;span style=&quot;text-align: center; text-wrap-mode: wrap;&quot;&gt;owerUsageData&amp;nbsp;&lt;/span&gt;:= getUsageHistory(userID)" style="text;html=1;align=left;verticalAlign=middle;resizable=0;points=[];autosize=1;strokeColor=none;fillColor=none;fontSize=14;" vertex="1" parent="vRYSADhHTqtjRS7yTj3M-6">
          <mxGeometry x="537" y="295" width="330" height="30" as="geometry" />
        </mxCell>
        <mxCell id="vRYSADhHTqtjRS7yTj3M-14" value="" style="endArrow=open;endFill=1;endSize=12;html=1;rounded=0;entryX=0.5;entryY=-0.1;entryDx=0;entryDy=0;entryPerimeter=0;fontSize=14;" edge="1" parent="vRYSADhHTqtjRS7yTj3M-6">
          <mxGeometry width="160" relative="1" as="geometry">
            <mxPoint x="510.5" y="280" as="sourcePoint" />
            <mxPoint x="608" y="385" as="targetPoint" />
          </mxGeometry>
        </mxCell>
        <mxCell id="vRYSADhHTqtjRS7yTj3M-15" value="«control»&lt;br&gt;&lt;div&gt;:ScheduleManager&lt;/div&gt;" style="html=1;whiteSpace=wrap;fontSize=14;" vertex="1" parent="vRYSADhHTqtjRS7yTj3M-6">
          <mxGeometry x="677" y="219" width="132" height="50" as="geometry" />
        </mxCell>
        <mxCell id="vRYSADhHTqtjRS7yTj3M-16" style="rounded=0;orthogonalLoop=1;jettySize=auto;html=1;exitX=1;exitY=0.5;exitDx=0;exitDy=0;entryX=0;entryY=0.5;entryDx=0;entryDy=0;strokeWidth=2;endArrow=none;endFill=0;fontSize=14;" edge="1" parent="vRYSADhHTqtjRS7yTj3M-6" source="vRYSADhHTqtjRS7yTj3M-15" target="vRYSADhHTqtjRS7yTj3M-17">
          <mxGeometry relative="1" as="geometry">
            <mxPoint x="910" y="260" as="sourcePoint" />
            <mxPoint x="860" y="185" as="targetPoint" />
          </mxGeometry>
        </mxCell>
        <mxCell id="vRYSADhHTqtjRS7yTj3M-17" value="&lt;div&gt;&amp;lt;&amp;lt;entity&amp;gt;&amp;gt;&lt;/div&gt;&lt;div&gt;:controlSchedule&lt;/div&gt;" style="html=1;whiteSpace=wrap;fontSize=14;" vertex="1" parent="vRYSADhHTqtjRS7yTj3M-6">
          <mxGeometry x="830" y="219" width="110" height="51" as="geometry" />
        </mxCell>
        <mxCell id="vRYSADhHTqtjRS7yTj3M-18" value="1.6: predictedFare :=&#xa;calculateFare(powerUsageData, pricingPlan)" style="text;whiteSpace=wrap;fontSize=14;" vertex="1" parent="vRYSADhHTqtjRS7yTj3M-6">
          <mxGeometry x="43" y="355" width="340" height="40" as="geometry" />
        </mxCell>
        <mxCell id="vRYSADhHTqtjRS7yTj3M-19" value="1.7: optimizationSuggestion :=&#xa;suggestOptimization(powerUsageData, userProfile)" style="text;whiteSpace=wrap;fontSize=14;" vertex="1" parent="vRYSADhHTqtjRS7yTj3M-6">
          <mxGeometry x="73" y="200" width="340" height="40" as="geometry" />
        </mxCell>
        <mxCell id="vRYSADhHTqtjRS7yTj3M-20" value="1.8: forwardResults(predictedFare, optimizationSuggestion)" style="text;html=1;align=center;verticalAlign=middle;resizable=0;points=[];autosize=1;strokeColor=none;fillColor=none;fontSize=14;" vertex="1" parent="vRYSADhHTqtjRS7yTj3M-6">
          <mxGeometry x="10" y="150" width="390" height="30" as="geometry" />
        </mxCell>
        <mxCell id="vRYSADhHTqtjRS7yTj3M-21" value="2 [user accept suggestion]: requestAcceptSuggestion()" style="text;html=1;align=left;verticalAlign=middle;resizable=0;points=[];autosize=1;strokeColor=none;fillColor=none;fontSize=14;fontColor=#FF1C10;" vertex="1" parent="vRYSADhHTqtjRS7yTj3M-6">
          <mxGeometry x="422" y="33" width="360" height="30" as="geometry" />
        </mxCell>
        <mxCell id="vRYSADhHTqtjRS7yTj3M-22" value="2.2: saveSchedule(userID, scheduleList)" style="text;html=1;align=left;verticalAlign=middle;resizable=0;points=[];autosize=1;strokeColor=none;fillColor=none;fontSize=14;textShadow=0;labelBackgroundColor=none;fontColor=#FF1C10;" vertex="1" parent="vRYSADhHTqtjRS7yTj3M-6">
          <mxGeometry x="439" y="205" width="270" height="30" as="geometry" />
        </mxCell>
        <mxCell id="vRYSADhHTqtjRS7yTj3M-23" value="사용자" style="shape=umlActor;verticalLabelPosition=bottom;verticalAlign=top;html=1;fontSize=14;" vertex="1" parent="vRYSADhHTqtjRS7yTj3M-6">
          <mxGeometry x="383" y="-100" width="30" height="60" as="geometry" />
        </mxCell>
        <mxCell id="vRYSADhHTqtjRS7yTj3M-24" style="edgeStyle=orthogonalEdgeStyle;rounded=0;orthogonalLoop=1;jettySize=auto;html=1;exitX=0.5;exitY=0;exitDx=0;exitDy=0;endArrow=none;endFill=0;strokeWidth=2;entryX=0.5;entryY=1;entryDx=0;entryDy=0;fontSize=14;" edge="1" parent="vRYSADhHTqtjRS7yTj3M-6" source="vRYSADhHTqtjRS7yTj3M-27" target="vRYSADhHTqtjRS7yTj3M-33">
          <mxGeometry relative="1" as="geometry">
            <mxPoint x="398" y="81" as="targetPoint" />
          </mxGeometry>
        </mxCell>
        <mxCell id="vRYSADhHTqtjRS7yTj3M-25" style="rounded=0;orthogonalLoop=1;jettySize=auto;html=1;exitX=1;exitY=0.5;exitDx=0;exitDy=0;entryX=0;entryY=0.5;entryDx=0;entryDy=0;strokeWidth=2;endArrow=none;endFill=0;fontSize=14;" edge="1" parent="vRYSADhHTqtjRS7yTj3M-6" source="vRYSADhHTqtjRS7yTj3M-27" target="vRYSADhHTqtjRS7yTj3M-7">
          <mxGeometry relative="1" as="geometry">
            <mxPoint x="563" y="415" as="targetPoint" />
          </mxGeometry>
        </mxCell>
        <mxCell id="vRYSADhHTqtjRS7yTj3M-26" style="edgeStyle=orthogonalEdgeStyle;rounded=0;orthogonalLoop=1;jettySize=auto;html=1;exitX=0.5;exitY=1;exitDx=0;exitDy=0;entryX=0.5;entryY=0;entryDx=0;entryDy=0;strokeWidth=2;endArrow=none;endFill=0;fontSize=14;" edge="1" parent="vRYSADhHTqtjRS7yTj3M-6" source="vRYSADhHTqtjRS7yTj3M-27" target="vRYSADhHTqtjRS7yTj3M-29">
          <mxGeometry relative="1" as="geometry" />
        </mxCell>
        <mxCell id="vRYSADhHTqtjRS7yTj3M-27" value="«control»&lt;br&gt;&lt;div&gt;:PredictionController&lt;/div&gt;" style="html=1;whiteSpace=wrap;fontSize=14;" vertex="1" parent="vRYSADhHTqtjRS7yTj3M-6">
          <mxGeometry x="323" y="250" width="150" height="30" as="geometry" />
        </mxCell>
        <mxCell id="vRYSADhHTqtjRS7yTj3M-28" style="edgeStyle=orthogonalEdgeStyle;rounded=0;orthogonalLoop=1;jettySize=auto;html=1;exitX=0.5;exitY=1;exitDx=0;exitDy=0;strokeWidth=2;endArrow=none;endFill=0;fontSize=14;" edge="1" parent="vRYSADhHTqtjRS7yTj3M-6" source="vRYSADhHTqtjRS7yTj3M-29">
          <mxGeometry relative="1" as="geometry">
            <mxPoint x="398" y="650" as="targetPoint" />
          </mxGeometry>
        </mxCell>
        <mxCell id="vRYSADhHTqtjRS7yTj3M-29" value="«boundary»&lt;br&gt;&lt;div&gt;:PowerCompanyInterface&lt;/div&gt;" style="html=1;whiteSpace=wrap;fontSize=14;" vertex="1" parent="vRYSADhHTqtjRS7yTj3M-6">
          <mxGeometry x="313" y="480" width="170" height="50" as="geometry" />
        </mxCell>
        <mxCell id="vRYSADhHTqtjRS7yTj3M-30" value="전력공급사" style="shape=umlActor;verticalLabelPosition=bottom;verticalAlign=top;html=1;fontSize=14;" vertex="1" parent="vRYSADhHTqtjRS7yTj3M-6">
          <mxGeometry x="383" y="660" width="30" height="60" as="geometry" />
        </mxCell>
        <mxCell id="vRYSADhHTqtjRS7yTj3M-31" value="" style="endArrow=open;endFill=1;endSize=12;html=1;rounded=0;exitX=0.885;exitY=0;exitDx=0;exitDy=0;exitPerimeter=0;fontSize=14;" edge="1" parent="vRYSADhHTqtjRS7yTj3M-6">
          <mxGeometry width="160" relative="1" as="geometry">
            <mxPoint x="383.9000000000001" y="220" as="sourcePoint" />
            <mxPoint x="383" y="138" as="targetPoint" />
          </mxGeometry>
        </mxCell>
        <mxCell id="vRYSADhHTqtjRS7yTj3M-32" style="rounded=0;orthogonalLoop=1;jettySize=auto;html=1;exitX=1;exitY=0;exitDx=0;exitDy=0;entryX=0;entryY=0.5;entryDx=0;entryDy=0;strokeWidth=2;endArrow=none;endFill=0;fontSize=14;" edge="1" parent="vRYSADhHTqtjRS7yTj3M-6" source="vRYSADhHTqtjRS7yTj3M-27" target="vRYSADhHTqtjRS7yTj3M-15">
          <mxGeometry relative="1" as="geometry">
            <mxPoint x="620" y="205" as="targetPoint" />
          </mxGeometry>
        </mxCell>
        <mxCell id="vRYSADhHTqtjRS7yTj3M-33" value="«boundary»&lt;br&gt;&lt;div&gt;:UserInterface&lt;/div&gt;" style="html=1;whiteSpace=wrap;fontSize=14;" vertex="1" parent="vRYSADhHTqtjRS7yTj3M-6">
          <mxGeometry x="343" y="71" width="110" height="50" as="geometry" />
        </mxCell>
        <mxCell id="vRYSADhHTqtjRS7yTj3M-34" style="edgeStyle=orthogonalEdgeStyle;rounded=0;orthogonalLoop=1;jettySize=auto;html=1;exitX=0.5;exitY=0;exitDx=0;exitDy=0;endArrow=none;endFill=0;strokeWidth=2;fontSize=14;" edge="1" parent="vRYSADhHTqtjRS7yTj3M-6" source="vRYSADhHTqtjRS7yTj3M-33">
          <mxGeometry relative="1" as="geometry">
            <mxPoint x="398" y="-20" as="targetPoint" />
            <mxPoint x="413" y="201" as="sourcePoint" />
          </mxGeometry>
        </mxCell>
        <mxCell id="vRYSADhHTqtjRS7yTj3M-35" value="1.1: processPrediction(userID)" style="text;html=1;align=center;verticalAlign=middle;resizable=0;points=[];autosize=1;strokeColor=none;fillColor=none;fontSize=14;" vertex="1" parent="vRYSADhHTqtjRS7yTj3M-6">
          <mxGeometry x="398" y="150" width="210" height="30" as="geometry" />
        </mxCell>
        <mxCell id="vRYSADhHTqtjRS7yTj3M-36" value="" style="endArrow=open;endFill=1;endSize=12;html=1;rounded=0;fontSize=14;" edge="1" parent="vRYSADhHTqtjRS7yTj3M-6">
          <mxGeometry width="160" relative="1" as="geometry">
            <mxPoint x="412" y="20" as="sourcePoint" />
            <mxPoint x="412" y="59" as="targetPoint" />
          </mxGeometry>
        </mxCell>
        <mxCell id="vRYSADhHTqtjRS7yTj3M-37" value="" style="endArrow=open;endFill=1;endSize=12;html=1;rounded=0;fontSize=14;" edge="1" parent="vRYSADhHTqtjRS7yTj3M-6">
          <mxGeometry width="160" relative="1" as="geometry">
            <mxPoint x="408" y="140" as="sourcePoint" />
            <mxPoint x="408" y="220" as="targetPoint" />
          </mxGeometry>
        </mxCell>
        <mxCell id="vRYSADhHTqtjRS7yTj3M-38" value="" style="endArrow=open;endFill=1;endSize=12;html=1;rounded=0;fontSize=14;" edge="1" parent="vRYSADhHTqtjRS7yTj3M-6">
          <mxGeometry width="160" relative="1" as="geometry">
            <mxPoint x="408" y="322" as="sourcePoint" />
            <mxPoint x="408" y="392" as="targetPoint" />
          </mxGeometry>
        </mxCell>
        <mxCell id="vRYSADhHTqtjRS7yTj3M-39" value="" style="endArrow=open;endFill=1;endSize=12;html=1;rounded=0;fontSize=14;" edge="1" parent="vRYSADhHTqtjRS7yTj3M-6">
          <mxGeometry width="160" relative="1" as="geometry">
            <mxPoint x="382" y="61" as="sourcePoint" />
            <mxPoint x="381" y="15" as="targetPoint" />
          </mxGeometry>
        </mxCell>
        <mxCell id="vRYSADhHTqtjRS7yTj3M-40" value="" style="endArrow=open;endFill=1;endSize=12;html=1;rounded=0;fontSize=14;" edge="1" parent="vRYSADhHTqtjRS7yTj3M-6">
          <mxGeometry width="160" relative="1" as="geometry">
            <mxPoint x="408" y="550" as="sourcePoint" />
            <mxPoint x="408" y="600" as="targetPoint" />
          </mxGeometry>
        </mxCell>
        <mxCell id="vRYSADhHTqtjRS7yTj3M-41" value="1: requestPrediction()" style="text;html=1;align=center;verticalAlign=middle;resizable=0;points=[];autosize=1;strokeColor=none;fillColor=none;fontSize=14;" vertex="1" parent="vRYSADhHTqtjRS7yTj3M-6">
          <mxGeometry x="408" y="13" width="160" height="30" as="geometry" />
        </mxCell>
        <mxCell id="vRYSADhHTqtjRS7yTj3M-42" value="«application logic»&lt;br&gt;&lt;div&gt;:PredictionModel&lt;/div&gt;" style="html=1;whiteSpace=wrap;fontSize=14;" vertex="1" parent="vRYSADhHTqtjRS7yTj3M-6">
          <mxGeometry x="80" y="480" width="160" height="50" as="geometry" />
        </mxCell>
        <mxCell id="vRYSADhHTqtjRS7yTj3M-43" style="rounded=0;orthogonalLoop=1;jettySize=auto;html=1;exitX=0;exitY=1;exitDx=0;exitDy=0;endArrow=none;endFill=0;strokeWidth=2;fontSize=14;" edge="1" parent="vRYSADhHTqtjRS7yTj3M-6" source="vRYSADhHTqtjRS7yTj3M-27" target="vRYSADhHTqtjRS7yTj3M-42">
          <mxGeometry relative="1" as="geometry" />
        </mxCell>
        <mxCell id="vRYSADhHTqtjRS7yTj3M-44" value="" style="endArrow=open;endFill=1;endSize=12;html=1;rounded=0;fontSize=14;" edge="1" parent="vRYSADhHTqtjRS7yTj3M-6">
          <mxGeometry width="160" relative="1" as="geometry">
            <mxPoint x="303" y="250" as="sourcePoint" />
            <mxPoint x="183" y="250" as="targetPoint" />
          </mxGeometry>
        </mxCell>
        <mxCell id="vRYSADhHTqtjRS7yTj3M-45" value="2.1: acceptSuggestion(userID)" style="text;html=1;align=left;verticalAlign=middle;resizable=0;points=[];autosize=1;strokeColor=none;fillColor=none;fontSize=14;textShadow=0;labelBackgroundColor=none;fontColor=#FF1C10;" vertex="1" parent="vRYSADhHTqtjRS7yTj3M-6">
          <mxGeometry x="407" y="170" width="210" height="30" as="geometry" />
        </mxCell>
        <mxCell id="vRYSADhHTqtjRS7yTj3M-46" value="1.4: pricingPlan :=&lt;div&gt;getLatestPricingPlan()&lt;/div&gt;" style="text;html=1;align=left;verticalAlign=middle;resizable=0;points=[];autosize=1;strokeColor=none;fillColor=none;fontSize=14;" vertex="1" parent="vRYSADhHTqtjRS7yTj3M-6">
          <mxGeometry x="413" y="345" width="160" height="50" as="geometry" />
        </mxCell>
        <mxCell id="vRYSADhHTqtjRS7yTj3M-47" value="" style="endArrow=open;endFill=1;endSize=12;html=1;rounded=0;fontSize=14;" edge="1" parent="vRYSADhHTqtjRS7yTj3M-6">
          <mxGeometry width="160" relative="1" as="geometry">
            <mxPoint x="298" y="270" as="sourcePoint" />
            <mxPoint x="240" y="360" as="targetPoint" />
          </mxGeometry>
        </mxCell>
        <mxCell id="vRYSADhHTqtjRS7yTj3M-48" value="" style="endArrow=open;endFill=1;endSize=12;html=1;rounded=0;fontSize=14;" edge="1" parent="vRYSADhHTqtjRS7yTj3M-6">
          <mxGeometry width="160" relative="1" as="geometry">
            <mxPoint x="519" y="235" as="sourcePoint" />
            <mxPoint x="588" y="235" as="targetPoint" />
          </mxGeometry>
        </mxCell>
        <mxCell id="vRYSADhHTqtjRS7yTj3M-49" value="1.5: pricingPlan := getLatestPricingPlan()" style="text;html=1;align=center;verticalAlign=middle;resizable=0;points=[];autosize=1;strokeColor=none;fillColor=none;fontSize=14;" vertex="1" parent="vRYSADhHTqtjRS7yTj3M-6">
          <mxGeometry x="398" y="560" width="280" height="30" as="geometry" />
        </mxCell>
        <mxCell id="vRYSADhHTqtjRS7yTj3M-50" value="&lt;div&gt;optimizationSuggestion&lt;/div&gt;&lt;div&gt;&amp;nbsp;- controlScheduleList&lt;/div&gt;&lt;div&gt;&amp;nbsp;- suggestion&lt;/div&gt;&lt;div&gt;&lt;br&gt;&lt;/div&gt;" style="shape=note2;boundedLbl=1;whiteSpace=wrap;html=1;size=25;verticalAlign=top;align=left;fontSize=14;" vertex="1" parent="vRYSADhHTqtjRS7yTj3M-1">
          <mxGeometry x="101" y="465" width="150" height="140" as="geometry" />
        </mxCell>
        <mxCell id="vRYSADhHTqtjRS7yTj3M-51" style="rounded=0;orthogonalLoop=1;jettySize=auto;html=1;exitX=0;exitY=0;exitDx=130;exitDy=67.5;exitPerimeter=0;entryX=0;entryY=0.5;entryDx=0;entryDy=0;dashed=1;fontSize=14;" edge="1" parent="vRYSADhHTqtjRS7yTj3M-1" source="vRYSADhHTqtjRS7yTj3M-50" target="vRYSADhHTqtjRS7yTj3M-19">
          <mxGeometry relative="1" as="geometry" />
        </mxCell>
      </root>
    </mxGraphModel>
  </diagram>
</mxfile>
